External Loads File
version=1
nRows=77
nColumns=13
Range=5.000000e-03-10 seconds
endheader
time 	forceRightX 	forceRightY 	forceRightZ 	pointRightX 	pointRightY 	pointRightZ 	forceLeftX 	forceLeftY 	forceLeftZ 	pointLeftX 	pointLeftY 	pointLeftZ 		
5.005000 28.457226 -10.967241 -0.000000 0.067482 0.306666 -0.121112 -306.400355 713.165393 -0.000000 0.327247 0.301198 -0.366771
5.010000 22.414561 -14.098911 -0.000000 0.070831 0.316184 -0.121020 -296.207802 732.236814 -0.000000 0.325319 0.290373 -0.366682
5.015000 15.392184 -17.247859 -0.000000 0.073354 0.325707 -0.122218 -282.925082 746.669693 -0.000000 0.323050 0.279748 -0.367215
5.020000 7.377858 -20.358693 -0.000000 0.077436 0.335034 -0.122409 -266.067499 757.725215 -0.000000 0.320021 0.269258 -0.366393
5.025000 -1.567715 -23.388499 -0.000000 0.082114 0.344317 -0.122663 -245.491691 766.390992 -0.000000 0.316537 0.258858 -0.366400
5.030000 -11.289472 -26.340538 -0.000000 0.087291 0.353533 -0.122811 -221.613533 773.251043 -0.000000 0.312539 0.248599 -0.366407
5.035000 -21.512155 -29.308336 -0.000000 0.092965 0.362633 -0.123051 -195.389471 778.528027 -0.000000 0.307977 0.238726 -0.366275
5.040000 -31.944763 -32.417734 -0.000000 0.099460 0.371781 -0.123033 -166.096835 782.661318 -0.000000 0.302928 0.229219 -0.366757
5.045000 -42.120601 -36.010336 -0.000000 0.105880 0.380263 -0.123287 -137.233708 785.005267 -0.000000 0.297341 0.220089 -0.366559
5.050000 -51.914186 -40.140103 -0.000000 0.113082 0.388909 -0.123282 -105.753668 786.143654 -0.000000 0.291356 0.211322 -0.366524
5.055000 -61.042549 -45.056602 -0.000000 0.120310 0.397381 -0.123498 -74.241545 785.451779 -0.000000 0.284847 0.202945 -0.366261
5.060000 -69.400606 -50.823624 -0.000000 0.127810 0.405821 -0.123887 -43.214559 782.645021 -0.000000 0.277932 0.195282 -0.365883
5.065000 -76.985080 -57.356431 -0.000000 0.135601 0.413903 -0.124293 -12.915637 777.383561 -0.000000 0.270706 0.187872 -0.365665
5.070000 -83.757019 -64.547932 -0.000000 0.143584 0.421657 -0.124796 15.364164 769.322644 -0.000000 0.263190 0.181241 -0.365501
5.075000 -89.923722 -71.889911 -0.000000 0.151925 0.429306 -0.125351 43.204255 758.186742 -0.000000 0.255317 0.174718 -0.365437
5.080000 -95.715739 -78.802012 -0.000000 0.160090 0.436495 -0.126212 71.744204 743.624696 -0.000000 0.247099 0.164351 -0.365100
5.085000 -100.005123 -86.213167 -0.000000 0.168790 0.443264 -0.126472 90.570059 726.709596 -0.000000 0.238592 0.164237 -0.364960
5.090000 -104.097079 -91.993235 -0.000000 0.177245 0.449529 -0.127718 112.449408 706.149410 -0.000000 0.229919 0.154910 -0.364738
5.095000 -106.992453 -96.604303 -0.000000 0.186491 0.455169 -0.127879 130.287567 682.681572 -0.000000 0.221013 0.151210 -0.364601
5.100000 -108.583328 -99.359658 -0.000000 0.195635 0.460161 -0.128668 145.463648 655.960500 -0.000000 0.211919 0.148022 -0.364537
5.105000 -108.583044 -99.824777 -0.000000 0.204662 0.464375 -0.129144 158.003635 625.742609 -0.000000 0.202713 0.140628 -0.364404
5.110000 -106.724807 -97.775176 -0.000000 0.213638 0.467663 -0.129638 167.618806 591.865291 -0.000000 0.193429 0.138684 -0.364165
5.115000 -103.330546 -92.708156 -0.000000 0.222951 0.470230 -0.129795 176.699686 553.426208 -0.000000 0.184057 0.142602 -0.364021
5.120000 -98.044129 -85.282870 -0.000000 0.232429 0.471867 -0.129516 182.476624 511.152998 -0.000000 0.174797 0.139962 -0.363844
5.125000 -91.261294 -75.736097 -0.000000 0.241490 0.472769 -0.129711 185.594544 465.028804 -0.000000 0.165585 0.140284 -0.363648
5.130000 -83.412772 -64.566497 -0.000000 0.250540 0.472914 -0.129657 185.912287 415.517944 -0.000000 0.156546 0.141105 -0.363478
5.135000 -75.034130 -52.283001 -0.000000 0.259479 0.472466 -0.129539 183.199963 363.414440 -0.000000 0.147693 0.142594 -0.363334
5.140000 -67.014734 -38.713512 -0.000000 0.268176 0.471321 -0.129286 179.678389 308.459418 -0.000000 0.139116 0.151798 -0.363143
5.145000 -59.225653 -24.965663 -0.000000 0.276411 0.469581 -0.128995 170.463203 254.727291 -0.000000 0.130887 0.154645 -0.362929
5.150000 -52.473272 -10.298542 -0.000000 0.284168 0.467191 -0.128594 158.526246 202.475445 -0.000000 0.123023 0.158172 -0.362641
5.155000 -47.059021 5.673470 -0.000000 0.291410 0.464132 -0.128306 144.552231 153.302416 -0.000000 0.115528 0.162365 -0.362426
5.160000 -43.166320 23.400104 -0.000000 0.298117 0.460386 -0.127884 129.346552 108.767318 -0.000000 0.108388 0.167006 -0.362415
5.165000 -40.801706 43.466203 -0.000000 0.304345 0.455681 -0.127408 113.945822 69.978910 -0.000000 0.101459 0.172525 -0.361959
5.170000 -40.528299 66.000636 -0.000000 0.309745 0.450059 -0.126849 98.604057 39.121960 -0.000000 0.094734 0.173349 -0.361446
5.175000 -40.387275 92.726728 -0.000000 0.314618 0.443674 -0.126379 85.115649 14.253545 -0.000000 0.088457 0.184487 -0.360993
5.180000 -42.503054 123.082841 -0.000000 0.318630 0.438334 -0.125877 73.067506 -1.254016 -0.000000 0.082576 0.191105 -0.360574
5.185000 -46.174286 158.370705 -0.000000 0.321740 0.432026 -0.125508 63.441246 -8.740584 -0.000000 0.077259 0.198010 -0.360053
5.190000 -51.871869 199.483452 -0.000000 0.323992 0.425212 -0.125071 56.641774 -8.967166 -0.000000 0.072309 0.205216 -0.359636
5.195000 -60.488400 247.179204 -0.000000 0.325372 0.417969 -0.124640 52.912833 -3.344465 -0.000000 0.067771 0.212578 -0.359323
5.200000 -71.470971 302.117572 -0.000000 0.327538 0.410179 -0.124421 52.259876 5.938392 -0.000000 0.063644 0.220702 -0.359425
5.205000 -85.736752 363.720622 -0.000000 0.328877 0.401421 -0.123808 54.446540 16.937947 -0.000000 0.059788 0.228984 -0.359336
5.210000 -101.599425 430.912479 -0.000000 0.330641 0.391820 -0.123753 58.954710 27.566652 -0.000000 0.056394 0.237876 -0.359533
5.215000 -117.740849 501.393525 -0.000000 0.332454 0.381502 -0.123405 64.947759 36.457247 -0.000000 0.053471 0.247227 -0.360041
5.220000 -132.099510 572.110616 -0.000000 0.334252 0.370515 -0.122976 71.405023 42.888846 -0.000000 0.051221 0.256876 -0.360135
5.225000 -144.047851 639.221933 -0.000000 0.335447 0.359518 -0.122797 77.214227 46.990760 -0.000000 0.049748 0.266694 -0.360216
5.230000 -153.146631 699.093247 -0.000000 0.336313 0.348874 -0.122714 81.534874 49.326179 -0.000000 0.048931 0.276360 -0.360337
5.235000 -157.109221 749.352277 -0.000000 0.336800 0.338073 -0.122405 84.084730 50.329810 -0.000000 0.048888 0.286083 -0.360376
5.240000 -155.856473 788.256527 -0.000000 0.336876 0.327080 -0.121733 84.821643 50.512642 -0.000000 0.049634 0.295716 -0.360436
5.245000 -150.546794 814.935060 -0.000000 0.336544 0.316313 -0.121311 83.901376 50.193170 -0.000000 0.051013 0.305320 -0.360589
5.250000 -141.287796 829.678217 -0.000000 0.336382 0.305653 -0.121444 81.638523 49.260128 -0.000000 0.052935 0.314976 -0.360768
5.255000 -130.230059 833.154354 -0.000000 0.335867 0.295554 -0.121427 78.156108 47.601439 -0.000000 0.055762 0.324658 -0.360986
5.260000 -126.318632 825.619917 -0.000000 0.334401 0.285210 -0.121761 73.112471 45.617834 -0.000000 0.058971 0.330709 -0.361182
5.265000 -108.646713 812.124238 -0.000000 0.332505 0.274488 -0.121383 67.767063 41.038635 -0.000000 0.062890 0.340094 -0.361672
5.270000 -79.475957 793.684194 -0.000000 0.330031 0.264101 -0.121928 61.883573 33.848161 -0.000000 0.066770 0.353456 -0.360573
5.275000 -61.690431 769.556778 -0.000000 0.327007 0.253737 -0.121688 54.350600 25.507721 -0.000000 0.071808 0.362150 -0.360580
5.280000 -42.712630 742.918633 -0.000000 0.323465 0.243786 -0.121550 45.598085 14.647261 -0.000000 0.077367 0.371177 -0.360714
5.285000 -23.372270 714.942575 -0.000000 0.319191 0.234107 -0.121409 35.241845 1.123820 -0.000000 0.083478 0.379937 -0.360745
5.290000 -3.329982 686.539470 -0.000000 0.314247 0.224825 -0.121329 22.844481 -15.102563 -0.000000 0.090000 0.388748 -0.360887
5.295000 15.581827 658.395055 -0.000000 0.308821 0.215920 -0.121248 8.120983 -33.828685 -0.000000 0.097009 0.396712 -0.361044
5.300000 36.321656 630.965768 -0.000000 0.302574 0.207184 -0.121070 -9.150874 -54.774487 -0.000000 0.104470 0.404977 -0.361080
5.305000 55.690846 604.708071 -0.000000 0.295998 0.198772 -0.121314 -28.529251 -77.373487 -0.000000 0.112348 0.412421 -0.361277
5.310000 75.634692 579.731382 -0.000000 0.288846 0.190794 -0.121289 -49.612146 -100.743263 -0.000000 0.120715 0.420141 -0.361311
5.315000 94.594288 556.319504 -0.000000 0.281171 0.183398 -0.121244 -71.298619 -123.812973 -0.000000 0.129163 0.427837 -0.361460
5.320000 111.885700 534.685515 -0.000000 0.273014 0.176302 -0.121119 -92.253409 -145.334283 -0.000000 0.137511 0.434952 -0.361311
5.325000 128.230105 514.714069 -0.000000 0.264334 0.170142 -0.121251 -111.430788 -163.759538 -0.000000 0.146206 0.441935 -0.361577
5.330000 144.010359 496.198485 -0.000000 0.255806 0.164413 -0.120878 -127.924630 -177.621344 -0.000000 0.155983 0.448631 -0.362856
5.335000 155.506934 480.115424 -0.000000 0.246667 0.159360 -0.120653 -139.529787 -186.961532 -0.000000 0.163811 0.454956 -0.361528
5.340000 166.280388 465.267665 -0.000000 0.237457 0.154463 -0.120463 -147.036039 -190.502730 -0.000000 0.172327 0.460569 -0.361335
5.345000 175.995920 451.457430 -0.000000 0.228109 0.150596 -0.120368 -150.363410 -188.549039 -0.000000 0.181322 0.465685 -0.361468
5.350000 184.368062 438.484292 -0.000000 0.218475 0.147251 -0.120134 -149.847041 -181.995686 -0.000000 0.190265 0.470028 -0.361207
5.355000 191.157506 426.133831 -0.000000 0.209058 0.144508 -0.120068 -146.165821 -172.023722 -0.000000 0.199303 0.473649 -0.361742
5.360000 197.167679 413.687034 -0.000000 0.199512 0.142328 -0.120001 -140.606505 -159.447662 -0.000000 0.208582 0.476606 -0.361611
5.365000 202.091628 400.844991 -0.000000 0.189962 0.140997 -0.119969 -134.035809 -145.255110 -0.000000 0.217835 0.478787 -0.361809
5.370000 206.210704 386.977669 -0.000000 0.180463 0.140054 -0.119985 -127.431995 -129.959235 -0.000000 0.227308 0.480257 -0.362197
5.375000 209.350492 371.634164 -0.000000 0.170921 0.139883 -0.120139 -121.366001 -113.993982 -0.000000 0.236693 0.480962 -0.362620
5.380000 211.393094 354.317870 -0.000000 0.161597 0.140458 -0.120142 -116.173747 -97.606101 -0.000000 0.246124 0.480658 -0.363288
5.385000 211.493928 335.040835 -0.000000 0.152468 0.141711 -0.120140 -111.795871 -81.146620 -0.000000 0.255075 0.480151 -0.363545
